<?xml version="1.0" encoding="utf-8"?>
<!-- Generator: Adobe Illustrator 13.0.0, SVG Export Plug-In  -->
<!DOCTYPE svg [
	<!ENTITY ns_flows "http://ns.adobe.com/Flows/1.0/">
]>
<svg version="1.2" baseProfile="tiny"
	 xmlns="http://www.w3.org/2000/svg" xmlns:xlink="http://www.w3.org/1999/xlink" xmlns:a="http://ns.adobe.com/AdobeSVGViewerExtensions/3.0/"
	 x="0px" y="0px" width="600px" height="360px" viewBox="-147.809 -32.448 600 360" xml:space="preserve">
<defs>
</defs>
<path d="M280.62,137.465c-1.792,3.595-5.091,8.669-8.106,11.652H32.046c-1.808-2.397-6.007-7.762-7.794-11.652H280.62
	 M262.65,161.428H41.921c3.589,4.188,7.478,8.057,11.377,10.766H250.38C255.139,169.485,259.66,165.617,262.65,161.428z
	 M235.394,183.577h-60.501c-1.781,9.606-1.781,18.569-1.781,25.153C190.77,207.532,214.13,199.458,235.394,183.577z M303.084,58.99
	c-27.556,1.787-67.095,20.347-92.848,50.599c-4.791,5.402-8.979,10.809-12.278,16.489H286.6
	C298.573,102.112,304.864,78.451,303.084,58.99z M131.179,208.73c0.296-6.584,0.296-15.547-0.922-25.153H69.171
	C90.754,199.458,114.095,207.532,131.179,208.73z M152.438,210.521c6.271-6.566,12.863-15.572,18.86-26.944h-38.042
	C139.549,194.949,145.56,203.955,152.438,210.521z M107.213,126.078c-3.299-5.68-7.805-11.087-12.284-16.489
	C69.171,79.336,29.337,60.776,2.092,58.99c-1.786,19.461,4.184,43.122,16.163,67.088H107.213z M190.77,126.078
	c0.602-6.882,1.197-13.505,1.197-21.273c0-41.91-18.855-85.349-39.529-104.805c-20.963,19.456-39.545,62.895-39.545,104.805
	c0,7.768,0,14.391,1.202,21.273H190.77z M280.064,295.004c12.589,0,23.071-5.102,23.071-17.711c0-7.178-5.098-11.968-13.184-14.061
	c-8.4-2.102-19.167-1.796-19.167-7.183c0.596-3.594,3.895-4.504,8.979-4.504c7.798,0,8.085,4.216,8.4,6.881h12.869
	c-0.912-9.854-8.996-16.746-21.859-16.746c-13.491,0-21.285,7.208-21.285,16.488c0,5.38,2.697,10.16,7.21,12.572
	c3.292,1.497,7.779,2.688,13.17,3.581c5.7,0.604,10.791,1.209,11.085,5.083c0,2.719-2.697,6.003-8.694,6.003
	c-8.68,0-10.481-4.797-10.481-8.115h-13.475C257.02,287.786,265.683,295.004,280.064,295.004z M209.62,268.33
	c0,7.788,6.915,14.676,15.003,14.676c7.772,0,14.37-6.888,14.37-14.676c0-8.078-6.598-14.982-14.37-14.982
	C216.535,253.347,209.62,260.251,209.62,268.33z M224.005,295.004c-14.692,0-26.949-11.999-26.949-26.675
	c0-14.982,12.257-26.648,26.949-26.648c5.708,0,10.799,1.495,14.987,4.501v-3.886h12.862v51.495h-12.862v-3.298
	C234.804,293.182,229.713,295.004,224.005,295.004z M150.645,268.33c0,7.788,6.868,14.676,14.656,14.676
	c8.078,0,14.993-6.888,14.993-14.676c0-8.078-6.915-14.982-14.993-14.982C157.513,253.347,150.645,260.251,150.645,268.33z
	 M180.294,224.595h12.562v69.196h-12.562v-3.298c-4.194,2.688-9.612,4.511-15.276,4.511c-14.693,0-26.65-11.999-26.65-26.675
	c0-14.982,11.957-26.648,26.65-26.648c5.664,0,10.765,1.495,15.276,4.501V224.595z M120.381,224.595h12.569v12.891h-12.569V224.595z
	 M120.381,242.296h12.569v51.49h-12.569V242.296z M71.263,268.33c0,7.788,6.892,14.676,15.287,14.676
	c7.773,0,14.666-6.888,14.666-14.676c0-8.078-6.892-14.982-14.666-14.982C78.155,253.347,71.263,260.251,71.263,268.33z
	 M85.944,295.004c-14.682,0-26.96-11.999-26.96-26.675c0-14.982,12.278-26.648,26.96-26.648c5.691,0,10.777,1.495,15.271,4.501
	v-21.587h12.879v69.196h-12.879v-3.298C96.721,293.182,91.636,295.004,85.944,295.004z M12.274,268.33
	c0,7.788,6.893,14.676,14.676,14.676c8.378,0,15.271-6.888,15.271-14.676c0-8.078-6.893-14.982-15.271-14.982
	C19.167,253.347,12.274,260.251,12.274,268.33z M26.645,295.004C11.968,295.004,0,283.005,0,268.33
	c0-14.982,11.968-26.648,26.645-26.648c5.701,0,11.092,1.495,15.576,4.501v-3.886H54.8v51.495H42.221v-3.298
	C37.737,293.182,32.652,295.004,26.645,295.004z"/>
<path d="M294.595,237.517c-3.553,0-6.452-2.869-6.452-6.463c0-3.542,2.899-6.438,6.452-6.438c3.564,0,6.438,2.896,6.438,6.438
	C301.034,234.648,298.16,237.517,294.595,237.517 M294.595,225.559c-2.991,0-5.421,2.486-5.421,5.495
	c0,3.033,2.43,5.495,5.421,5.495c2.979,0,5.439-2.462,5.439-5.495C300.035,228.045,297.575,225.559,294.595,225.559z"/>
<path d="M296.15,234.596l-1.595-2.895h-1.073v2.895h-0.988v-7.054h2.401c1.238,0,2.224,0.906,2.224,2.088
	c0,1.04-0.633,1.678-1.492,1.941l1.672,3.024H296.15 M294.788,228.38h-1.306v2.514h1.306c0.786,0,1.346-0.556,1.346-1.264
	C296.133,228.935,295.574,228.38,294.788,228.38z"/>
</svg>
