<?xml version="1.0" encoding="utf-8"?>
<!-- Generator: Adobe Illustrator 13.0.0, SVG Export Plug-In  -->
<!DOCTYPE svg [
	<!ENTITY ns_flows "http://ns.adobe.com/Flows/1.0/">
]>
<svg version="1.2" baseProfile="tiny"
	 xmlns="http://www.w3.org/2000/svg" xmlns:xlink="http://www.w3.org/1999/xlink" xmlns:a="http://ns.adobe.com/AdobeSVGViewerExtensions/3.0/"
	 x="0px" y="0px" width="600px" height="360px" viewBox="-109.771 -88.304 600 360" xml:space="preserve">
<defs>
</defs>
<path fill-rule="evenodd" d="M263.91,140.242c10.412,0.255,19.533-9.74,20.596-18.348c1.02-8.259-5.928-15.903-12.746-16.015
	c-5.199-0.085-10.248-0.058-15.688,0c-6.244,10.971-12.191,22.235-17.648,33.989C248.439,140.06,254.791,140.018,263.91,140.242z
	 M272.413,68.947c5.417-11.579,11.692-22.299,17.321-33.664c7.398-0.195,10.177-0.273,16.342,0
	c8.114,0.359,11.688,7.038,12.42,11.439c1.026,6.185-2.029,11.646-5.556,15.36C304.213,71.277,287.064,69.785,272.413,68.947z
	 M103.268,0.237h73.746l6.033,22.57l-89.868-5.616L103.268,0.237z M194.166,61.915l18.548-29.223l56.308-4.67l-52.038-2.936
	L231.261,0c0,0,36.825,0,93.134,0c56.31,0,57.913,24.152,54.578,40.965c-3.336,16.812-11.742,29.22-24.686,37.359
	c-12.942,8.141-25.753,9.477-25.753,9.477c10.008,7.071,19.349,25.618,18.68,37.228s-1.731,23.616-23.216,39.761
	c-21.484,16.146-52.706,19.217-52.706,19.217H141.725l-7.205-24.687l62.716-4.537l-65.118-4.671l-8.54-29.222l-14.945,27.888
	l-84.858-5.805l10.866-19.656l186.878-12.434L47.492,100.443l9.275-17.051l188.503-12.27L69.668,59.911l11.074-19.615l104.882-6.539
	L194.166,61.915z M102.301,160.079l-12.588,23.424H0l9.242-17.209L102.301,160.079z"/>
</svg>
