<?xml version="1.0" encoding="utf-8"?>
<!-- Generator: Adobe Illustrator 13.0.0, SVG Export Plug-In  -->
<!DOCTYPE svg [
	<!ENTITY ns_flows "http://ns.adobe.com/Flows/1.0/">
]>
<svg version="1.2" baseProfile="tiny"
	 xmlns="http://www.w3.org/2000/svg" xmlns:xlink="http://www.w3.org/1999/xlink" xmlns:a="http://ns.adobe.com/AdobeSVGViewerExtensions/3.0/"
	 x="0px" y="0px" width="600px" height="360px" viewBox="-57.043 -48.94 600 360" xml:space="preserve">
<defs>
</defs>
<path d="M146.02,130.07L194.616,0.083L162.638,0l-21.599,56.945l5.589-56.589L112.67,0.193L64.381,129.97l30.731-0.111
	l23.449-62.453l-3.961,62.281L146.02,130.07 M184.193,130.512L232.773,0.415l-31.21-0.143l-48.565,130.01L184.193,130.512z
	 M272.305,122.396l-1.642-65.343l43.938-51.55l2.253-2.195L272.305,122.396z M494.851,76.413l-155.327,40.325l4.162-12.277
	l-33.387,0.464l11.117-31.161l27.901,0.318l8.368-23.27l-27.544-0.076l9.721-25.88l27.327,0.147l8.936-24.709l-87.993,0.39
	l-32.031,37.463l14.941-37.741l-31.179,0.159L191.23,130.258l31.458-0.228l20.548-55.484l-0.071,55.956l41.629,0.254l-147.216,38.85
	c-29.965,8.024-54.117,6.737-68.036-3.671c-35.086-25.899-7.878-77.508,1.882-92.802c-17.384,18.658-34.609,37.865-48.322,58.03
	c-21.229,32.687-30.57,67.861-16.192,90.705c25.504,41.016,86.903,22.398,125.932,6.544L494.851,76.413z"/>
</svg>
