<?xml version="1.0" encoding="utf-8"?>
<!-- Generator: Adobe Illustrator 24.0.0, SVG Export Plug-In . SVG Version: 6.00 Build 0)  -->
<svg version="1.1" id="Ebene_1" xmlns="http://www.w3.org/2000/svg" xmlns:xlink="http://www.w3.org/1999/xlink" x="0px" y="0px"
	 viewBox="0 0 600 360" style="enable-background:new 0 0 600 360;" xml:space="preserve">
<style type="text/css">
	.st0{fill:none;}
	.st1{fill:#1D1D1B;}
</style>
<rect class="st0" width="600" height="360"/>
<g>
	<path class="st1" d="M413.2,132.5c-8.2,0-14.8-6.6-14.8-14.8c0-8.2,6.6-14.8,14.8-14.8c8.1,0,14.8,6.6,14.8,14.7
		C428,125.8,421.4,132.4,413.2,132.5 M413.2,88.8c-19.5,0-32.7,11.6-32.7,28.9c0,16.5,14.1,29,32.7,29c19.2,0,32.7-11.9,32.7-29
		C446,100.5,432.8,88.8,413.2,88.8"/>
	<path class="st1" d="M347.4,89.7h-11.7v14.9h8c6.5,0,11.7,5.6,11.7,12.5c0.2,6.6-4.8,12.2-11.4,12.7h-14.6V74.2h-18.1v70.6h32.5
		c14.4,0,29.8-10.9,29.8-27C373.6,100.2,360.3,89.7,347.4,89.7"/>
	<path class="st1" d="M184.5,117.3c0-6.9,5.6-12.6,12.5-12.7h14.3l-11.5,19.3H217l11.6-18.2v-16h-34.5c-15.2,0.3-27.3,12.9-27,28.1
		c0.3,14.8,12.2,26.6,27,27h34.6V130H197C190.1,129.9,184.4,124.2,184.5,117.3"/>
	<path class="st1" d="M133.1,74.2H89v70.6h17.5V89.6h22.7c6.2,0,12.9,3.3,12.9,12.6c0,7.1-5,12.5-12,12.5h-17.5v14.7h12.3
		c10.6,0.4,15.2,5.3,15.2,15.7v15.1h18.4v-20.1c0-10.7-7.5-16.1-14.8-17.9c11.4-3.9,17-12.7,17-23.4
		C160.7,83.6,146.4,74.2,133.1,74.2"/>
	<path class="st1" d="M494.8,115.4c12.2-3.8,15.6-10.5,15.7-23.7v-2h-17.9v3c0,8.9-3.8,15.2-12.1,15.2h-8.5V74.2h-18.1v70.6h18.1
		v-22h6.5c9,0,14.5,5.2,14.5,13.4v8.7h18v-8.1C511,126.2,506.3,118.6,494.8,115.4"/>
	<path class="st1" d="M254.9,117.3c0-7,5.6-12.6,12.6-12.7h14.3l-11.6,19.3h17.3l11.6-18.2v-16h-34.5c-15.2,0.3-27.3,12.9-27,28.1
		c0.3,14.8,12.2,26.6,27,27h34.6V130h-31.7C260.5,129.9,254.9,124.2,254.9,117.3"/>
	<path class="st1" d="M359.2,220.4c46.4-18.6,75.3-29.3,151.8-47.9c-41.5,2.7-133.5,9.1-196.9,21.4L359.2,220.4"/>
	<path class="st1" d="M214.9,282h60.6c12-18.2,24-27.1,37.9-36.9c-10.6-4.1-21.1-8-31.9-11.8C242.9,250.3,221.3,273.3,214.9,282"/>
	<path class="st1" d="M226.9,215.8c-54.1,19.3-84.2,40.3-104.5,66.2h67c6.5-9.1,31.4-35.3,78.1-53.5
		C254.6,224.1,232.3,217.1,226.9,215.8"/>
	<path class="st1" d="M254.7,175.1H106.6c149.3,27,221.3,61.7,337,110.7C433.7,278.4,274.2,184.5,254.7,175.1"/>
</g>
</svg>
