<?xml version="1.0" encoding="utf-8"?>
<!-- Generator: Adobe Illustrator 13.0.0, SVG Export Plug-In . SVG Version: 6.00 Build 14948)  -->
<!DOCTYPE svg PUBLIC "-//W3C//DTD SVG 1.1 Tiny//EN" "http://www.w3.org/Graphics/SVG/1.1/DTD/svg11-tiny.dtd">
<svg version="1.1" baseProfile="tiny" id="Ebene_1" xmlns="http://www.w3.org/2000/svg" xmlns:xlink="http://www.w3.org/1999/xlink"
	 x="0px" y="0px" width="600px" height="360px" viewBox="0 0 600 360" xml:space="preserve">
<g>
	<path fill-rule="evenodd" d="M280.743,71.475c12.19-2.617,14.434,12.22,10.239,20.476c-5.298,2.241-4.871-0.461-11.944,0
		c-3.11-3.472-5.396-13.835-1.709-18.77C279.314,73.458,280.365,72.803,280.743,71.475z"/>
	<path fill-rule="evenodd" d="M313.164,80.006c0.992,6.679-1.467,9.909-3.412,13.651c-6.514,0.827-10.892-0.482-13.651-3.412
		C292.946,77.765,306.915,72.798,313.164,80.006z"/>
	<path fill-rule="evenodd" d="M265.384,35.64c1.624,20.376-9.649,39.599-10.237,63.136c45.13,4.194,105.541,8.937,146.751,0
		c7.775,6.998,5.914,22.317-5.117,23.891c-4.929-1.326-6.284-6.229-10.239-8.531c-44.842,1.319-95.246-3.262-129.689-3.412
		c-8.213,19.66-4.091,51.652-5.118,78.496c18.994-10.584,7.962-51.195,25.594-63.139c20.446,8.835-6.461,47.576,6.829,64.844
		c15.645-15.636,9.924-52.643,25.594-68.258c18.369,9.959-3.142,39.129,1.709,58.02c21.547,3.152,32.603-27.495,54.604-23.888
		c5.047,16.659-19.24,18.123-27.305,27.302c1.237,6.156,13.003,1.787,17.066,5.119c19.892-13.669,19.67-47.45,47.78-52.9
		c11.603,20.571-17.732,23.986-22.184,39.249c6.146,5.796,20.23,3.657,25.596,10.236c12.272-9.34,11.827-31.399,23.891-40.952
		c18.791,3.971-0.254,36.297,8.532,51.191c19.354-14.192,7.392-54.512,25.595-66.55c13.192,4.566,5.916,16.395,5.121,23.89
		c-5.173,48.682-0.243,92.742-1.707,150.167c1.604,6.359,7.043,8.884,5.119,18.77c-3.742,3.653-6.182,8.609-13.651,8.533
		c-9.159-5.248-4.688-13.422-3.412-23.891c4.111-33.744-0.816-80.547,1.706-119.452c-4.947,11.537-11.802,30.535-15.358,46.073
		c-1.851,8.105,3.646,22.993-10.24,22.186c-9.232-4.702-4.787-10.49-3.412-20.479c-12.394,2.965-18.013,12.703-30.716,15.357
		c-0.046-1.657-2.088-1.322-3.412-1.703c-8-15.364,2.038-39.255,8.533-51.194c-7.463-5.892-24.516-10.384-35.835-6.826
		c6.372,6.711,18.719,7.444,23.89,15.355c-7.247,22.903-31.797,28.497-52.901,37.542c-8.935-13.766,3.747-31.634,10.239-40.952
		c-5.17-8.481-23.332-3.973-35.836-5.119c-5.966,26.184,26.223,63.334-5.117,68.256c-7.445-20.178-1.018-44.745-6.827-64.842
		c-2.906,7.898-10.833,10.777-13.65,18.77c0.673,14.323,1.768,29.07-15.359,25.595c-4.843-4.086-1.685-6.284-1.706-13.65
		c-22.047,1.197-9.871,29.282-17.066,42.663c-3.981,0-7.962,0-11.943,0c-4.865-6.615-2.806-14.903,0-22.185
		c-13.178,1.04-12.734,15.706-30.717,11.943c-1.541-3.009-3.816-5.283-6.826-6.827c5.325-18.564,8.936-38.842,15.359-56.309
		c-24.093-5.14-60.666,7.755-80.203,1.705c1.056-17.015,21.875-20.541,34.129-25.596c14.581-6.017,29.938-11.604,44.368-15.357
		c4.643,1.045,6.687,4.688,6.827,10.239c8.258-16.199,9.622-39.294,15.357-58.02c-22.187-6.279-61.313,4.491-85.324,1.707
		c-2.959-4.859-5.594-14.865,0-18.772c1.984,0.279,3.037-0.374,3.414-1.706c17.098,12.381,49.933,4.832,80.201,6.825
		c12.047-15.823,5.933-49.811,13.654-69.961C257.986,31.663,261.215,34.12,265.384,35.64z M236.377,189.219
		c8.453,1.002,5.573-18.24,3.413-22.185C238.382,173.653,232.796,183.058,236.377,189.219z M174.944,190.924
		c16.551,0.054,30.082-2.909,47.78-1.705c-0.901-7.159,2.981-9.533,3.412-15.358C211.172,181.649,188.21,181.44,174.944,190.924z
		 M422.377,190.924c7.285,2.011,6.85-13.488,1.708-13.651C423.976,182.495,417.819,186.164,422.377,190.924z M403.607,233.583
		c16.732-1.633,27.557-13.827,23.89-30.714C409.705,187.536,405.54,217.469,403.607,233.583z M221.018,243.821
		c6.457,2.903,13.723-6.236,20.479-8.531c0-11.376,0-22.752,0-34.126C220.348,201.058,228.462,230.221,221.018,243.821z
		 M261.972,219.934c10.187,2.537,12.114-17.666,3.412-18.77C265.934,209.104,261.984,212.551,261.972,219.934z M350.706,225.052
		c11.793-1.288,19.953-6.214,23.891-15.355c-4.829-2.568-7.888-6.9-15.357-6.827C357.285,211.154,351.552,215.659,350.706,225.052z"
		/>
</g>
<rect fill-rule="evenodd" fill="none" width="600" height="360"/>
</svg>
