<?xml version="1.0" encoding="utf-8"?>
<!-- Generator: Adobe Illustrator 25.3.1, SVG Export Plug-In . SVG Version: 6.00 Build 0)  -->
<svg version="1.1" id="Ebene_1" xmlns="http://www.w3.org/2000/svg" xmlns:xlink="http://www.w3.org/1999/xlink" x="0px" y="0px"
	 viewBox="0 0 600 360" style="enable-background:new 0 0 600 360;" xml:space="preserve">
<style type="text/css">
	.st0{fill:none;}
	.st1{fill-rule:evenodd;clip-rule:evenodd;}
</style>
<rect y="0" class="st0" width="600" height="360"/>
<g>
	<path class="st1" d="M349.4,102.7v-9.8h-39.2v53.8h39.2v-8.9h-28.3v-14.6h24.8v-9.6h-24.8v-10.9H349.4z M338.5,152.2v20.7h-21.4
		v-20.7H306v53.6h11.1v-24h21.4v24h10.9v-53.6H338.5L338.5,152.2z M349.4,220.9v-9.6h-39.2v54.5h39.2V256h-28.3v-14.4h24.8v-8.9
		h-24.8v-11.8L349.4,220.9L349.4,220.9z M304,92.9h-10.9v20.7h-21.4V92.9h-10.9v53.8h10.9v-24h21.4v24H304V92.9z M213.8,92.9v9.8
		h16.6v44h10.9v-44h16.6v-9.8H213.8z M179.4,150.7c-17.2,0-26.2,9.8-26.2,28.3c0,19.4,9.1,29,26.2,29s26.1-9.6,26.1-29
		C205.5,160.5,196.6,150.7,179.4,150.7z M165,179c0-12.4,4.8-18.5,14.4-18.5c10.3,0,15.2,6.1,15.2,18.5c0,13.1-4.8,19.4-15.2,19.4
		C169.8,198.4,165,192.1,165,179z M137.5,152.2v37.9L116,152.2h-11.6v53.6h10.3v-37.7l22,37.7h11.6v-53.6H137.5z M188.3,233.5v-12.6
		h27.5v-9.6h-38.4v54.5h10.9v-22.7h24.2v-9.6L188.3,233.5L188.3,233.5z M301.9,161.8v-9.6h-44v9.6h16.4v44h11.1v-44H301.9
		L301.9,161.8z M233.7,185.3c3.5,0,6.3,0.6,7.6,2l2,18.5h12.4v-1.3c-1.3-0.7-2-4.1-2-10.4c0-7.6-2.8-11.6-6.8-13.7
		c5.5-2.2,8.3-6.3,8.3-13.1c0-9.6-5.5-15.2-17.2-15.2h-27v53.6h11.1v-20.5H233.7z M222.1,176.2v-14.4h13.7c5.5,0,8.3,2,8.3,6.8
		c0,4.8-2.8,7.6-8.9,7.6L222.1,176.2L222.1,176.2z M241.3,211.3h-13.1L209,265.8h11.6l4.3-11.8h20l3.3,11.8H260L241.3,211.3
		L241.3,211.3z M234.5,223.7l6.8,21.4h-13.7L234.5,223.7L234.5,223.7z M295.1,229.2H306c-0.6-4.8-2-8.9-5.4-12.4
		c-4.8-4.1-10.3-6.8-17.9-6.8c-7.6,0-13.1,2.8-17.9,7.6c-4.1,4.8-6.8,11.6-6.8,20.7c0,19.2,8.1,28.8,24,28.8c13.9,0,21.4-6.8,24-20
		h-10.9c-1.5,6.3-6.3,9.6-12.4,9.6c-9.1,0-13.1-6.1-13.1-17.9c0-12.9,4.1-19.2,13.1-19.2C288.8,219.6,292.3,223.2,295.1,229.2
		L295.1,229.2z M158,265.1h0.2H158z M158.2,265.1c1.8,0,3.3-0.7,4.4-1.7c0.9-1.1,1.7-2.6,1.7-4.6c0-2.2-0.7-3.7-1.7-4.6
		c-1.1-0.9-2.6-1.5-4.4-1.5H158c-2.2,0-3.7,0.6-4.6,1.5c-0.9,0.9-1.5,2.4-1.5,4.6v0.2c0,1.9,0.6,3.3,1.5,4.4
		c0.9,0.9,2.4,1.7,4.6,1.7L158.2,265.1L158.2,265.1z M158,266.6c-2.6,0-4.4-0.9-5.7-2.2c-1.3-1.3-1.8-3.1-1.8-5.4v-0.2
		c0-2.6,0.6-4.4,1.8-5.7c1.3-1.3,3.1-1.9,5.7-1.9h0.2c2.2,0,4.1,0.6,5.4,1.9s2.2,3.1,2.2,5.7c0,2.4-0.9,4.2-2.2,5.5
		c-1.4,1.4-3.3,2.2-5.4,2.2H158z M158.7,258.1h0.2c0.7,0,1.1-0.4,1.1-1.3v-0.2c0,0-0.2,0-0.2-0.2c-0.2-0.2-0.6-0.2-1.1-0.2h-2v1.9
		L158.7,258.1L158.7,258.1L158.7,258.1z M160,259.4l1.5,1.9c0.2,0.4,0,0.7-0.2,0.9c-0.4,0.4-0.9,0.2-1.1,0l-1.8-2.6h-1.7v2
		c0,0.4-0.4,0.7-0.7,0.7c-0.4,0-0.7-0.4-0.7-0.7v-6.1c0-0.4,0.4-0.7,0.7-0.7h3c0.7,0,1.5,0.2,1.8,0.6c0.2,0.2,0.4,0.2,0.4,0.4
		c0.4,0.4,0.4,0.7,0.4,1.1C161.5,258.3,161.1,259,160,259.4L160,259.4z M357,92.9c34.4,0,64.1,12.6,88.1,36.6
		c24.8,24.8,37.1,54.3,37.1,88.9v47.5H432v-49c0-19.2-6.8-35.8-20.7-49.5c-3.3-3.5-6.8-6.3-10.9-9.1c-11.1-7.6-24.2-10.9-37.9-10.9
		H357L357,92.9L357,92.9L357,92.9z M427.2,265.8H388V228c0-6.3-2-11.1-6.3-15.2c-4.1-4.2-9.6-6.3-15.2-6.3H357v-54.3h5.5
		c14.4,0,26.8,4.1,37.9,12.4c2.8,1.3,5.5,4.1,7.6,6.1c13.1,13.1,19.2,28.3,19.2,46.2V265.8z M383.2,265.8H357v-54.5h9.6
		c4.3,0,8.3,1.5,11.8,4.8c2.8,2.8,4.8,7,4.8,11.8V265.8z"/>
</g>
</svg>
