<?xml version="1.0" encoding="utf-8"?>
<!-- Generator: Adobe Illustrator 13.0.0, SVG Export Plug-In . SVG Version: 6.00 Build 14948)  -->
<!DOCTYPE svg PUBLIC "-//W3C//DTD SVG 1.1 Tiny//EN" "http://www.w3.org/Graphics/SVG/1.1/DTD/svg11-tiny.dtd">
<svg version="1.1" baseProfile="tiny" id="Ebene_1" xmlns="http://www.w3.org/2000/svg" xmlns:xlink="http://www.w3.org/1999/xlink"
	 x="0px" y="0px" width="600px" height="360px" viewBox="0 0 600 360" xml:space="preserve">
<g>
	<polygon fill="#1A171B" points="175.58,81.887 175.58,82.145 175.486,82.145 129.442,231.593 80.316,83.286 42.312,83.144 
		105.139,276.184 151.486,276.184 202.561,115.289 524.577,115.289 524.577,81.887 	"/>
	<path fill="#1A171B" d="M223.129,144.467l-37.997,131.505h33.969l4.028-17.155h34.549l4.032,17.155h34.55l-38.006-131.505H223.129z
		 M229.467,230.945l10.938-47.17l11.516,47.17H229.467z"/>
	<polygon fill="#1A171B" points="377.444,185.918 378.594,215.937 340.597,144.469 308.348,144.469 308.348,275.972 
		341.747,275.972 341.747,234.52 340.017,204.502 378.021,275.972 410.841,275.972 410.841,144.469 377.444,144.469 	"/>
	<path fill="#1A171B" d="M481.667,192.354c-13.824-4.293-20.734-8.812-20.734-13.581c0-5.239,3.832-7.859,11.514-7.859
		c3.833,0,6.713,0.958,8.641,2.858c3.07,1.428,4.795,4.285,5.182,8.572h32.822c-3.455-27.155-18.628-40.967-45.49-41.447
		c-29.563,0.959-44.724,15.009-45.488,42.166c0,20.49,13.618,34.787,40.884,42.88c13.436,3.819,20.151,8.341,20.151,13.579
		c0,6.195-4.99,9.291-14.976,9.291c-3.837,0-7.101-0.951-9.784-2.859c-2.685-2.378-4.604-5.952-5.758-10.721h-33.396
		c3.456,27.158,19.189,41.452,47.213,42.881c32.247-0.479,48.75-15.244,49.527-44.312
		C521.974,214.275,508.526,200.459,481.667,192.354z"/>
	<path fill="#1A171B" d="M556.169,141.003h-1.527c-0.008,5.856-4.745,10.597-10.604,10.608c-5.854-0.012-10.595-4.752-10.6-10.608
		c0.005-5.855,4.745-10.593,10.6-10.606c5.858,0.014,10.596,4.751,10.604,10.606H556.169h1.519c0-7.54-6.111-13.647-13.649-13.649
		c-7.538,0.002-13.646,6.109-13.646,13.649c0,7.541,6.107,13.651,13.646,13.654c7.538-0.003,13.649-6.113,13.649-13.654H556.169z"/>
	<path fill="#1A171B" d="M549.746,146.624l-4.434-5.54c2.608-0.396,3.918-1.62,3.918-3.664c-0.054-2.443-1.904-3.693-5.544-3.751
		h-6.045v0.342c1.418-0.06,2.046,0.597,1.874,1.962v9.459c0.225,1.591-0.396,2.33-1.874,2.216v0.424h6.045v-0.424
		c-1.471,0.056-2.125-0.599-1.954-1.962v-4.262l1.277-0.083l5.114,6.73h3.577v-0.424
		C550.965,147.647,550.314,147.305,549.746,146.624z M541.732,140.574v-5.369c-0.113-0.568,0.342-0.824,1.363-0.768
		c2.496,0,3.75,0.995,3.75,2.982C546.846,139.637,545.137,140.688,541.732,140.574z"/>
</g>
<rect fill="none" width="600" height="360"/>
</svg>
